<svg xmlns="http://www.w3.org/2000/svg" xmlns:xlink="http://www.w3.org/1999/xlink" width="162.755" height="33.214" viewBox="0 0 162.755 33.214">
  <defs>
    <style>
      .cls-1, .cls-2 {
        fill: #272526;
      }

      .cls-1 {
        font-size: 8px;
        font-family: STLibianSC-Regular, Libian SC;
        letter-spacing: 1.13em;
      }

      .cls-3 {
        fill: none;
        stroke: #272526;
        stroke-miterlimit: 10;
        stroke-width: 1.5px;
      }

      .cls-4 {
        fill: #0a4089;
      }

      .cls-5 {
        fill: url(#linear-gradient);
      }

      .cls-6 {
        fill: #eb9331;
      }

      .cls-7 {
        fill: url(#linear-gradient-2);
      }

      .cls-8 {
        fill: url(#linear-gradient-3);
      }
    </style>
    <linearGradient id="linear-gradient" x1="-0.001" y1="0.521" x2="0.808" y2="0.487" gradientUnits="objectBoundingBox">
      <stop offset="0" stop-color="#022b49"/>
      <stop offset="1" stop-color="#0a4089"/>
    </linearGradient>
    <linearGradient id="linear-gradient-2" x1="0.169" y1="0.858" x2="0.635" y2="0.157" gradientUnits="objectBoundingBox">
      <stop offset="0" stop-color="#c46814"/>
      <stop offset="1" stop-color="#eb9331" stop-opacity="0.4"/>
    </linearGradient>
    <linearGradient id="linear-gradient-3" x1="-0.126" y1="0.692" x2="0.469" y2="0.524" xlink:href="#linear-gradient-2"/>
  </defs>
  <g id="组_4632" data-name="组 4632" transform="translate(-426 96.407)">
    <g id="组_4631" data-name="组 4631" transform="translate(426 -96.407)">
      <text id="您身边的育才专家" class="cls-1" transform="translate(34.755 29.604)"><tspan x="0" y="0">您身边的育才专家</tspan></text>
      <path id="路径_3973" data-name="路径 3973" class="cls-2" d="M3930.87,1398.391v-2.208a3.7,3.7,0,0,0,.977-.956,6.658,6.658,0,0,0,.764-2.431h2q-.34,1.677-.552,2.346A5.166,5.166,0,0,1,3930.87,1398.391Z" transform="translate(-3896.115 -1392.435)"/>
      <path id="路径_3974" data-name="路径 3974" class="cls-2" d="M3930.87,1418.781v-2.2a5.08,5.08,0,0,0,1.062-1.114,6.87,6.87,0,0,0,.669-2.3h2.007l-.223.987v10.626a1.382,1.382,0,0,1-1.382,1.382h-.6v-8.249A8.045,8.045,0,0,1,3930.87,1418.781Z" transform="translate(-3896.115 -1407.74)"/>
      <path id="路径_3975" data-name="路径 3975" class="cls-2" d="M3948.037,1398.381V1396.2a4.147,4.147,0,0,0,1.136-1.242,8.037,8.037,0,0,0,.605-2.166h2l-.244,1.2h4.82v1.964H3953.7v3h2.654v1.964H3953.7v2.633h2.654v1.964H3953.7v3.365h1.65a1,1,0,0,1,1,1v.96h-5.691a1.8,1.8,0,0,1-1.858-1.89V1402.5h2v5.68q0,.478.17.605a.935.935,0,0,0,.52.106h.244v-7.963h-2.93v-1.964h2.93v-3h-.828a6.483,6.483,0,0,1-1.476,1.7A6.683,6.683,0,0,1,3948.037,1398.381Z" transform="translate(-3909.013 -1392.435)"/>
      <path id="路径_3976" data-name="路径 3976" class="cls-2" d="M3985.529,1410.855v-15.713a3.046,3.046,0,0,1,.245-1.5,2.183,2.183,0,0,1,1.953-.849h1.763a1.877,1.877,0,0,1,2.134,2.113v11.88a2.867,2.867,0,0,1-.275,1.487,1.784,1.784,0,0,1-.627.616,2.743,2.743,0,0,1-1.231.2h-1.53v-1.051a.9.9,0,0,1,.9-.9H3989a.614.614,0,0,0,.5-.191,1.483,1.483,0,0,0,.16-.839v-10.192a1.634,1.634,0,0,0-.17-.966.7.7,0,0,0-.531-.181h-.871a.6.6,0,0,0-.5.255,1.791,1.791,0,0,0-.1.786v15.044Z" transform="translate(-3937.185 -1392.435)"/>
      <path id="路径_3977" data-name="路径 3977" class="cls-2" d="M4018.966,1396.916v-.807a1.188,1.188,0,0,1,1.189-1.189h13.6v-2h1.964v2h2.792v2h-2.792v10.553a4.58,4.58,0,0,1-.382,2.261,2.846,2.846,0,0,1-1.083.988,2.509,2.509,0,0,1-1.168.3h-3.663V1409.8a.748.748,0,0,1,.749-.748h2.426a1.057,1.057,0,0,0,.775-.319,1.622,1.622,0,0,0,.382-1.189v-10.628Zm.764,14.205v-1.964a4.625,4.625,0,0,0,1.307-1.21,11.406,11.406,0,0,0,1.242-2.527l2.506-6.827h2.006l-2.3,6.508a16.527,16.527,0,0,1-1.954,4.119,5.312,5.312,0,0,1-1.434,1.38A5.87,5.87,0,0,1,4019.73,1411.121Z" transform="translate(-3962.308 -1392.531)"/>
      <path id="路径_3978" data-name="路径 3978" class="cls-2" d="M4106.036,1410.867v-1.179a.786.786,0,0,1,.786-.786h0a18.918,18.918,0,0,0,3.122-.286,16.141,16.141,0,0,0,4.384-1.487,22.906,22.906,0,0,1-2.495-3.015,28.647,28.647,0,0,1-1.773-3.09l-1.667-3.376h2.251l1.147,2.4a23.95,23.95,0,0,0,1.72,3.026,16.829,16.829,0,0,0,2.538,2.92,13.585,13.585,0,0,0,3.96-5.712l1.434-3.705H4106.1v-.861a1.134,1.134,0,0,1,1.135-1.135h7.655v-1.7h1.943v1.7h8.865v1.114a.882.882,0,0,1-.882.882h-1.136l-1.358,3.461a23.17,23.17,0,0,1-2.57,4.99,14.863,14.863,0,0,1-2.006,2.208,12.465,12.465,0,0,0,6.646,1.731q.477,0,1.306-.042v1.943h-.849c-.389.007-.712.01-.966.01a14.3,14.3,0,0,1-4.873-.839,15.4,15.4,0,0,1-2.973-1.539,16.456,16.456,0,0,1-3.407,1.508A23.435,23.435,0,0,1,4106.036,1410.867Z" transform="translate(-4027.73 -1392.5)"/>
      <path id="路径_3979" data-name="路径 3979" class="cls-2" d="M4193.705,1401.92v-2.548a5.89,5.89,0,0,0,2.2-2.718,18.41,18.41,0,0,0,.956-3.047h2.219a18.9,18.9,0,0,1-1.263,4.13v12.811a.875.875,0,0,1-.875.874h-1.175v-10.808a5.11,5.11,0,0,1-1.008.775Q4194.437,1401.57,4193.705,1401.92Z" transform="translate(-4093.603 -1393.045)"/>
      <path id="路径_3980" data-name="路径 3980" class="cls-2" d="M4219.632,1401.717l3.828-1.975v-6.391h1.975v5.425a15.791,15.791,0,0,0,3.482-1.847,4.227,4.227,0,0,0,1.02-2.166H4232a7.867,7.867,0,0,1-.477,2.038,4.915,4.915,0,0,1-2.6,2.611l-3.482,1.6v7.1a1.074,1.074,0,0,0,.805,1.135,1.538,1.538,0,0,0,.456.064h3.86a1.45,1.45,0,0,1,1.45,1.451v.545h-5.5a3.043,3.043,0,0,1-2.251-.8,2.739,2.739,0,0,1-.8-2.039V1401.9l-3.828,1.858Z" transform="translate(-4113.084 -1392.852)"/>
      <path id="路径_3981" data-name="路径 3981" class="cls-2" d="M4278.33,1406.98v-1.932h5.637l1.253-1.274a.632.632,0,0,0,.223-.435q0-.308-.531-.308h-4.6a4.854,4.854,0,0,1-1.985.86v-2.017a3.417,3.417,0,0,0,1.911-1.943h-1.911v-1.975h3.938v-1.837h-3.938v-1.964h3.938v-1.189h1.954v1.189h3.971v1.964h-3.971v1.837h1.434v-.913h1.963v.913h.574v1.975h-5.51a11.547,11.547,0,0,1-.6,1.136h2.93a3.953,3.953,0,0,1,2.219.478,1.525,1.525,0,0,1,.765,1.263q0,.786-1.433,2.24h1.7v1.932h-2.57v.86a3,3,0,0,1-3.249,3.174h-2.909v-1.985h2.867a1.179,1.179,0,0,0,.934-.329,1.387,1.387,0,0,0,.361-.977v-.743Zm10.288-7.888v-1.964a1.68,1.68,0,0,0,1.083-1.062q.2-.5.743-2.591l.138-.552h2.017l-.34,1.338h5.6v1.964h-.87q-.1,3.217-.266,4.884a21.346,21.346,0,0,1-.509,2.983,12.649,12.649,0,0,1-1.189,2.909,8.711,8.711,0,0,0,1.231,1.115,6.076,6.076,0,0,0,.589.379,2.045,2.045,0,0,1,1.014,1.78v.717a11.246,11.246,0,0,1-1.975-.838,12.1,12.1,0,0,1-2.091-1.614,11.068,11.068,0,0,1-1.911,1.444,13.682,13.682,0,0,1-2.347,1.009v-.36a2.806,2.806,0,0,1,1.318-2.367,8.934,8.934,0,0,0,1.7-1.361,16.429,16.429,0,0,1-1.55-3.759q-.318-1.136-.871-4.194h1.279a.8.8,0,0,1,.779.642q.472,2.393.67,3.127a10.661,10.661,0,0,0,.913,2.452,10.477,10.477,0,0,0,.892-3.132q.138-.955.223-3.589l.085-2.229h-3.238a4.777,4.777,0,0,1-1.231,2.017A4.345,4.345,0,0,1,4288.618,1399.092Z" transform="translate(-4157.188 -1392.531)"/>
      <path id="路径_3982" data-name="路径 3982" class="cls-2" d="M4365.657,1395.609v-1.964h8.833v-.892h1.964v.892h8.823v1.964h-16.318a3.326,3.326,0,0,0-.562,1.37.658.658,0,0,0,.467.658,3.353,3.353,0,0,0,1.041.106h11.944q.913,0,.913-.648a2.531,2.531,0,0,0-.1-.5c-.014-.078-.036-.195-.064-.35h1.943a7.564,7.564,0,0,1,.149,1.306,1.978,1.978,0,0,1-.744,1.667,2.866,2.866,0,0,1-1.805.52h-12.783q-3.174.011-3.174-2.187a3.281,3.281,0,0,1,.319-1.274c.007-.022.071-.167.191-.436l.106-.234Z" transform="translate(-4222.804 -1392.403)"/>
      <path id="路径_3983" data-name="路径 3983" class="cls-2" d="M4385.97,1424.468a2.508,2.508,0,0,0-1.857-.542h-13.876q-2.188,0-2.187,1.964v8.345h.778a1.186,1.186,0,0,0,1.186-1.186v-1.142h0V1425.4h14.464v6.507h-.03c-.061.158-.119.253-.175.279a2.472,2.472,0,0,1-.52.1l-.605-.01v1.964h1.189q2.177,0,2.176-2.261v-5.924A2.21,2.21,0,0,0,4385.97,1424.468Z" transform="translate(-4224.601 -1415.826)"/>
      <rect id="矩形_4920" data-name="矩形 4920" class="cls-3" width="13.918" height="2.538" rx="1.269" transform="translate(146.906 11.986)"/>
      <g id="组_4628" data-name="组 4628" transform="translate(97.863 16.424)">
        <rect id="矩形_4921" data-name="矩形 4921" class="cls-2" width="5.259" height="1.942" transform="translate(0 0)"/>
      </g>
      <rect id="矩形_4922" data-name="矩形 4922" class="cls-2" width="4.359" height="1.727" transform="translate(85.759 0.382)"/>
      <g id="组_4629" data-name="组 4629" transform="translate(0 0)">
        <path id="路径_3984" data-name="路径 3984" class="cls-4" d="M3802.716,1400.147c-3.879-3.007-7.757-.2-11.635-3.211v-5.591c3.878,2.953,7.757.1,11.635,3.05Z" transform="translate(-3791.08 -1391.345)"/>
      </g>
      <g id="组_4630" data-name="组 4630" transform="translate(11.636 0.233)">
        <path id="路径_3985" data-name="路径 3985" class="cls-5" d="M3849.516,1397.864c-3.879,2.882-7.757.107-11.636,2.989v-5.742c3.878-2.828,7.757,0,11.636-2.827Z" transform="translate(-3837.88 -1392.283)"/>
      </g>
      <path id="路径_3986" data-name="路径 3986" class="cls-6" d="M3808.2,1436.658v7.984a5.112,5.112,0,0,1-5.112,5.112h-.735a5.112,5.112,0,0,1-5.112-5.112v-8a3.125,3.125,0,0,0-2.165-2.974l-3.991-1.29h0v11.347a11.635,11.635,0,0,0,11.635,11.635h0a11.635,11.635,0,0,0,11.635-11.635v-11.347h0l-3.977,1.285A3.147,3.147,0,0,0,3808.2,1436.658Z" transform="translate(-3791.08 -1422.177)"/>
      <path id="路径_3987" data-name="路径 3987" class="cls-7" d="M3801.788,1503.391s3.7,2.633,10.261-1.463l7.335,1.867S3810.761,1512.73,3801.788,1503.391Z" transform="translate(-3799.125 -1474.434)"/>
      <path id="路径_3988" data-name="路径 3988" class="cls-8" d="M3844.474,1480.19s4.213-1.694,4.306-9.428l5.531-5.168S3855.2,1478.7,3844.474,1480.19Z" transform="translate(-3831.199 -1447.134)"/>
    </g>
  </g>
</svg>
